<?xml version="1.0" encoding="UTF-8" standalone="no"?>
<svg
   xmlns:dc="http://purl.org/dc/elements/1.1/"
   xmlns:cc="http://creativecommons.org/ns#"
   xmlns:rdf="http://www.w3.org/1999/02/22-rdf-syntax-ns#"
   xmlns:svg="http://www.w3.org/2000/svg"
   xmlns="http://www.w3.org/2000/svg"
   xmlns:sodipodi="http://sodipodi.sourceforge.net/DTD/sodipodi-0.dtd"
   xmlns:inkscape="http://www.inkscape.org/namespaces/inkscape"
   inkscape:version="1.0 (4035a4fb49, 2020-05-01)"
   sodipodi:docname="XRPLedger_DevPortal-white.svg"
   id="svg991"
   version="1.1"
   fill="none"
   viewBox="0 0 468 116"
   height="116"
   width="468">
  <metadata
     id="metadata997">
    <rdf:RDF>
      <cc:Work
         rdf:about="">
        <dc:format>image/svg+xml</dc:format>
        <dc:type
           rdf:resource="http://purl.org/dc/dcmitype/StillImage" />
        <dc:title></dc:title>
      </cc:Work>
    </rdf:RDF>
  </metadata>
  <defs
     id="defs995" />
  <sodipodi:namedview
     inkscape:current-layer="svg991"
     inkscape:window-maximized="1"
     inkscape:window-y="1"
     inkscape:window-x="0"
     inkscape:cy="58"
     inkscape:cx="220.57619"
     inkscape:zoom="2.8397436"
     inkscape:pagecheckerboard="true"
     showgrid="false"
     id="namedview993"
     inkscape:window-height="1028"
     inkscape:window-width="1920"
     inkscape:pageshadow="2"
     inkscape:pageopacity="0"
     guidetolerance="10"
     gridtolerance="10"
     objecttolerance="10"
     borderopacity="1"
     bordercolor="#666666"
     pagecolor="#ffffff" />
  <g
     style="opacity:1"
     id="g989"
     opacity="0.9">
    <path
       style="opacity:1"
       id="path979"
       fill="white"
       d="M191.43 51.8301L197.43 39.7701H207.5L197.29 57.7701L207.76 76.1901H197.66L191.57 63.8701L185.47 76.1901H175.4L185.87 57.7701L175.66 39.7701H185.74L191.43 51.8301ZM223.5 63.2201H218.73V76.0801H210V39.7701H224.3C228.67 39.7701 231.98 40.7001 234.37 42.6901C235.58 43.6506 236.546 44.8828 237.191 46.2866C237.835 47.6905 238.14 49.2265 238.08 50.7701C238.155 52.9971 237.605 55.2005 236.49 57.1301C235.322 58.9247 233.668 60.3501 231.72 61.2401L239.27 75.9401V76.3401H229.86L223.5 63.2201ZM218.86 56.4701H224.43C225.109 56.5414 225.795 56.4589 226.437 56.2286C227.079 55.9984 227.661 55.6263 228.14 55.1401C229.022 54.1082 229.492 52.7871 229.46 51.4301C229.509 50.754 229.416 50.0752 229.189 49.4366C228.962 48.798 228.605 48.2135 228.14 47.7201C227.653 47.2459 227.07 46.8825 226.429 46.6547C225.789 46.4269 225.107 46.34 224.43 46.4001H218.86V56.4701ZM251.73 63.7501V76.0801H243V39.7701H257.58C260.143 39.7175 262.683 40.2618 265 41.3601C267.03 42.3389 268.758 43.8489 270 45.7301C271.199 47.6808 271.797 49.9415 271.72 52.2301C271.773 53.8434 271.455 55.4474 270.789 56.9179C270.123 58.3884 269.128 59.6859 267.88 60.7101C265.36 62.8301 261.88 63.8901 257.41 63.8901H251.72L251.73 63.7501ZM251.73 57.0001H257.42C258.12 57.0708 258.827 56.9885 259.491 56.7588C260.156 56.5292 260.763 56.1577 261.27 55.6701C261.742 55.209 262.106 54.6484 262.334 54.0291C262.563 53.4098 262.65 52.7474 262.59 52.0901C262.68 50.6061 262.209 49.1425 261.27 47.9901C260.812 47.4622 260.24 47.0449 259.597 46.7695C258.955 46.4941 258.258 46.3678 257.56 46.4001H251.73V57.0001ZM296.73 69.4501H312V76.2101H287.9V39.7701H296.65V69.4501H296.73ZM337.81 60.7101H324.07V69.4501H340.37V76.2101H315.37V39.7701H340.55V46.5301H324.25V54.2101H337.9L337.81 60.7101ZM343.37 76.0801V39.7701H355.16C358.25 39.7375 361.295 40.5058 364 42.0001C366.568 43.4425 368.655 45.6093 370 48.2301C371.442 50.9709 372.216 54.0134 372.26 57.1101V58.8301C372.324 61.9609 371.595 65.0569 370.14 67.8301C368.731 70.4528 366.622 72.6337 364.048 74.1306C361.475 75.6275 358.537 76.3819 355.56 76.3101H343.42L343.37 76.0801ZM352.12 46.5301V69.4501H355.12C356.241 69.5121 357.36 69.3038 358.383 68.8426C359.407 68.3814 360.304 67.6809 361 66.8001C362.333 64.9534 363 62.3034 363 58.8501V57.2601C363 53.6801 362.333 51.0301 361 49.3101C360.287 48.4178 359.37 47.7109 358.325 47.2495C357.28 46.7881 356.14 46.5859 355 46.6601H352.09L352.12 46.5301ZM405.83 71.7001C404.158 73.3731 402.096 74.6035 399.83 75.2801C397.058 76.2148 394.145 76.6647 391.22 76.6101C386.45 76.6101 382.6 75.1501 379.82 72.2301C377.04 69.3101 375.45 65.2301 375.18 60.0401V56.8601C375.131 53.6307 375.765 50.4274 377.04 47.4601C378.217 44.9066 380.101 42.7443 382.47 41.2301C384.959 39.7722 387.806 39.038 390.69 39.1101C395.19 39.1101 398.77 40.1701 401.29 42.2901C403.81 44.4101 405.29 47.4601 405.66 51.5601H397.18C397.066 49.909 396.355 48.3558 395.18 47.1901C394.003 46.2386 392.51 45.7671 391 45.8701C389.971 45.8449 388.953 46.0881 388.047 46.5755C387.14 47.0629 386.376 47.7779 385.83 48.6501C384.465 51.0865 383.823 53.8617 383.98 56.6501V58.9001C383.98 62.4801 384.64 65.2601 385.83 67.1201C387.02 68.9801 389.01 69.9001 391.66 69.9001C393.521 70.0287 395.363 69.4621 396.83 68.3101V62.6101H390.74V56.6101H405.58V71.7001H405.83ZM433 60.7001H419.22V69.4401H435.51V76.2001H410.51V39.7701H435.69V46.5301H419.39V54.2101H433.17V60.7101L433 60.7001ZM452.21 63.2101H447.44V76.0801H438.56V39.7701H452.87C457.25 39.7701 460.56 40.7001 462.94 42.6901C464.152 43.649 465.119 44.8809 465.764 46.2851C466.409 47.6893 466.712 49.2261 466.65 50.7701C466.725 52.9971 466.175 55.2005 465.06 57.1301C463.892 58.9247 462.238 60.3501 460.29 61.2401L467.85 75.9401V76.3401H458.44L452.21 63.2101ZM447.44 56.4601H453C453.679 56.5314 454.365 56.4489 455.007 56.2186C455.649 55.9884 456.231 55.6163 456.71 55.1301C457.579 54.0965 458.038 52.7798 458 51.4301C458.046 50.7542 457.953 50.0761 457.726 49.4378C457.499 48.7996 457.143 48.2149 456.68 47.7201C456.197 47.2499 455.618 46.8888 454.983 46.6611C454.348 46.4334 453.672 46.3444 453 46.4001H447.43L447.44 56.4601Z"
       opacity="0.9" />
    <path
       style="opacity:1"
       id="path981"
       fill="white"
       d="M35.4 7.20001H38.2V8.86606e-06H35.4C32.4314 -0.00262172 29.4914 0.580149 26.7482 1.71497C24.0051 2.8498 21.5126 4.5144 19.4135 6.61353C17.3144 8.71266 15.6498 11.2051 14.515 13.9483C13.3801 16.6914 12.7974 19.6314 12.8 22.6V39C12.806 42.4725 11.4835 45.8158 9.10354 48.3445C6.72359 50.8732 3.46651 52.3957 0 52.6L0.2 56.2L0 59.8C3.46651 60.0043 6.72359 61.5268 9.10354 64.0555C11.4835 66.5842 12.806 69.9275 12.8 73.4V92.3C12.7894 98.5716 15.2692 104.591 19.6945 109.035C24.1198 113.479 30.1284 115.984 36.4 116V108.8C32.0513 108.797 27.8814 107.069 24.8064 103.994C21.7314 100.919 20.0026 96.7487 20 92.4V73.4C20.003 70.0079 19.1752 66.6667 17.5889 63.6684C16.0026 60.6701 13.706 58.1059 10.9 56.2C13.698 54.286 15.9885 51.7202 17.5738 48.7237C19.1592 45.7272 19.9918 42.39 20 39V22.6C20.0184 18.5213 21.6468 14.615 24.5309 11.7309C27.415 8.84683 31.3213 7.21842 35.4 7.20001V7.20001Z"
       opacity="0.9" />
    <path
       style="opacity:1"
       id="path983"
       fill="white"
       d="M118.6 7.2H115.8V0H118.6C124.58 0.0158944 130.309 2.40525 134.528 6.643C138.747 10.8808 141.111 16.6202 141.1 22.6V39C141.094 42.4725 142.416 45.8158 144.796 48.3445C147.176 50.8732 150.433 52.3957 153.9 52.6L153.7 56.2L153.9 59.8C150.433 60.0043 147.176 61.5268 144.796 64.0555C142.416 66.5842 141.094 69.9275 141.1 73.4V92.3C141.111 98.5716 138.631 104.591 134.206 109.035C129.78 113.479 123.772 115.984 117.5 116V108.8C121.849 108.797 126.019 107.069 129.094 103.994C132.169 100.919 133.897 96.7487 133.9 92.4V73.4C133.897 70.0079 134.725 66.6667 136.311 63.6684C137.897 60.6701 140.194 58.1059 143 56.2C140.202 54.286 137.911 51.7201 136.326 48.7237C134.741 45.7272 133.908 42.39 133.9 39V22.6C133.911 20.5831 133.523 18.584 132.759 16.7173C131.995 14.8507 130.87 13.1533 129.448 11.7225C128.027 10.2916 126.337 9.1556 124.475 8.37952C122.613 7.60345 120.617 7.20261 118.6 7.2V7.2Z"
       opacity="0.9" />
    <path
       style="opacity:1"
       id="path985"
       fill="white"
       d="M103.2 29H113.9L91.6 49.9C87.599 53.5203 82.3957 55.525 77 55.525C71.6042 55.525 66.4009 53.5203 62.4 49.9L40.1 29H50.8L67.7 44.8C70.2237 47.1162 73.5245 48.4013 76.95 48.4013C80.3754 48.4013 83.6763 47.1162 86.2 44.8L103.2 29Z"
       opacity="0.9" />
    <path
       style="opacity:1"
       id="path987"
       fill="white"
       d="M50.7 87H40L62.4 66C66.3788 62.3351 71.5905 60.3007 77 60.3007C82.4095 60.3007 87.6212 62.3351 91.6 66L114 87H103.3L86.3 71C83.7763 68.6838 80.4755 67.3987 77.05 67.3987C73.6245 67.3987 70.3237 68.6838 67.8 71L50.7 87Z"
       opacity="0.9" />
  </g>
</svg>
